<mxfile host="app.diagrams.net" modified="2020-10-23T09:26:17.989Z" agent="5.0 (Windows NT 10.0; Win64; x64) AppleWebKit/537.36 (KHTML, like Gecko) Chrome/86.0.4240.111 Safari/537.36" etag="95X9Hjm4rvh7w-IlebVN" version="13.8.1" type="github">
  <diagram id="rOJX3hNZijKMgnFqBjje" name="Page-1">
    <mxGraphModel dx="1108" dy="450" grid="1" gridSize="10" guides="1" tooltips="1" connect="1" arrows="1" fold="1" page="1" pageScale="1" pageWidth="827" pageHeight="1169" math="0" shadow="0">
      <root>
        <mxCell id="0" />
        <mxCell id="1" parent="0" />
        <mxCell id="Zm7VVup-Eee8MABnJSml-62" value="" style="shape=table;html=1;whiteSpace=wrap;startSize=0;container=1;collapsible=0;childLayout=tableLayout;strokeColor=#FF3333;" parent="1" vertex="1">
          <mxGeometry x="490" y="605" width="950" height="210" as="geometry" />
        </mxCell>
        <mxCell id="Zm7VVup-Eee8MABnJSml-63" value="" style="shape=partialRectangle;html=1;whiteSpace=wrap;collapsible=0;dropTarget=0;pointerEvents=0;fillColor=none;top=0;left=0;bottom=0;right=0;points=[[0,0.5],[1,0.5]];portConstraint=eastwest;" parent="Zm7VVup-Eee8MABnJSml-62" vertex="1">
          <mxGeometry width="950" height="210" as="geometry" />
        </mxCell>
        <mxCell id="Zm7VVup-Eee8MABnJSml-64" value="" style="shape=partialRectangle;html=1;whiteSpace=wrap;connectable=0;overflow=hidden;fillColor=none;top=0;left=0;bottom=0;right=0;strokeColor=#FF3333;" parent="Zm7VVup-Eee8MABnJSml-63" vertex="1">
          <mxGeometry width="950" height="210" as="geometry" />
        </mxCell>
        <mxCell id="Zm7VVup-Eee8MABnJSml-59" value="" style="shape=table;html=1;whiteSpace=wrap;startSize=0;container=1;collapsible=0;childLayout=tableLayout;strokeColor=#FF3333;" parent="1" vertex="1">
          <mxGeometry x="470" y="290" width="970" height="210" as="geometry" />
        </mxCell>
        <mxCell id="Zm7VVup-Eee8MABnJSml-60" value="" style="shape=partialRectangle;html=1;whiteSpace=wrap;collapsible=0;dropTarget=0;pointerEvents=0;fillColor=none;top=0;left=0;bottom=0;right=0;points=[[0,0.5],[1,0.5]];portConstraint=eastwest;" parent="Zm7VVup-Eee8MABnJSml-59" vertex="1">
          <mxGeometry width="970" height="210" as="geometry" />
        </mxCell>
        <mxCell id="Zm7VVup-Eee8MABnJSml-61" value="" style="shape=partialRectangle;html=1;whiteSpace=wrap;connectable=0;overflow=hidden;fillColor=none;top=0;left=0;bottom=0;right=0;strokeColor=#FF3333;" parent="Zm7VVup-Eee8MABnJSml-60" vertex="1">
          <mxGeometry width="970" height="210" as="geometry" />
        </mxCell>
        <mxCell id="Zm7VVup-Eee8MABnJSml-47" style="edgeStyle=none;rounded=0;orthogonalLoop=1;jettySize=auto;html=1;entryX=0;entryY=0.5;entryDx=0;entryDy=0;" parent="1" source="Zm7VVup-Eee8MABnJSml-43" target="Zm7VVup-Eee8MABnJSml-57" edge="1">
          <mxGeometry relative="1" as="geometry">
            <mxPoint x="1560" y="330" as="targetPoint" />
          </mxGeometry>
        </mxCell>
        <mxCell id="Zm7VVup-Eee8MABnJSml-48" style="edgeStyle=none;rounded=0;orthogonalLoop=1;jettySize=auto;html=1;entryX=0;entryY=0.5;entryDx=0;entryDy=0;" parent="1" source="Zm7VVup-Eee8MABnJSml-43" target="Zm7VVup-Eee8MABnJSml-51" edge="1">
          <mxGeometry relative="1" as="geometry">
            <mxPoint x="1560" y="720" as="targetPoint" />
          </mxGeometry>
        </mxCell>
        <mxCell id="Zm7VVup-Eee8MABnJSml-43" value="" style="shape=table;html=1;whiteSpace=wrap;startSize=0;container=1;collapsible=0;childLayout=tableLayout;" parent="1" vertex="1">
          <mxGeometry x="1310" y="320" width="130" height="410" as="geometry" />
        </mxCell>
        <mxCell id="Zm7VVup-Eee8MABnJSml-44" value="" style="shape=partialRectangle;html=1;whiteSpace=wrap;collapsible=0;dropTarget=0;pointerEvents=0;fillColor=none;top=0;left=0;bottom=0;right=0;points=[[0,0.5],[1,0.5]];portConstraint=eastwest;" parent="Zm7VVup-Eee8MABnJSml-43" vertex="1">
          <mxGeometry width="130" height="410" as="geometry" />
        </mxCell>
        <mxCell id="Zm7VVup-Eee8MABnJSml-45" value="" style="shape=partialRectangle;html=1;whiteSpace=wrap;connectable=0;overflow=hidden;fillColor=none;top=0;left=0;bottom=0;right=0;" parent="Zm7VVup-Eee8MABnJSml-44" vertex="1">
          <mxGeometry width="130" height="410" as="geometry" />
        </mxCell>
        <mxCell id="Zm7VVup-Eee8MABnJSml-33" style="edgeStyle=none;rounded=0;orthogonalLoop=1;jettySize=auto;html=1;" parent="1" source="Zm7VVup-Eee8MABnJSml-30" edge="1">
          <mxGeometry relative="1" as="geometry">
            <mxPoint x="1170" y="535" as="targetPoint" />
          </mxGeometry>
        </mxCell>
        <mxCell id="Zm7VVup-Eee8MABnJSml-30" value="" style="shape=table;html=1;whiteSpace=wrap;startSize=0;container=1;collapsible=0;childLayout=tableLayout;" parent="1" vertex="1">
          <mxGeometry x="540" y="310" width="400" height="450" as="geometry" />
        </mxCell>
        <mxCell id="Zm7VVup-Eee8MABnJSml-31" value="" style="shape=partialRectangle;html=1;whiteSpace=wrap;collapsible=0;dropTarget=0;pointerEvents=0;fillColor=none;top=0;left=0;bottom=0;right=0;points=[[0,0.5],[1,0.5]];portConstraint=eastwest;" parent="Zm7VVup-Eee8MABnJSml-30" vertex="1">
          <mxGeometry width="400" height="450" as="geometry" />
        </mxCell>
        <mxCell id="Zm7VVup-Eee8MABnJSml-32" value="" style="shape=partialRectangle;html=1;whiteSpace=wrap;connectable=0;overflow=hidden;fillColor=none;top=0;left=0;bottom=0;right=0;" parent="Zm7VVup-Eee8MABnJSml-31" vertex="1">
          <mxGeometry width="400" height="450" as="geometry" />
        </mxCell>
        <mxCell id="Zm7VVup-Eee8MABnJSml-2" style="edgeStyle=orthogonalEdgeStyle;rounded=0;orthogonalLoop=1;jettySize=auto;html=1;entryX=0;entryY=0.4;entryDx=0;entryDy=0;entryPerimeter=0;" parent="1" source="Zm7VVup-Eee8MABnJSml-1" target="Zm7VVup-Eee8MABnJSml-10" edge="1">
          <mxGeometry relative="1" as="geometry">
            <mxPoint x="580" y="716.5" as="targetPoint" />
            <mxPoint x="290" y="600" as="sourcePoint" />
          </mxGeometry>
        </mxCell>
        <mxCell id="Zm7VVup-Eee8MABnJSml-5" style="edgeStyle=orthogonalEdgeStyle;rounded=0;orthogonalLoop=1;jettySize=auto;html=1;entryX=0;entryY=0.5;entryDx=0;entryDy=0;entryPerimeter=0;" parent="1" source="Zm7VVup-Eee8MABnJSml-1" target="Zm7VVup-Eee8MABnJSml-9" edge="1">
          <mxGeometry relative="1" as="geometry">
            <mxPoint x="570" y="260" as="targetPoint" />
          </mxGeometry>
        </mxCell>
        <mxCell id="Zm7VVup-Eee8MABnJSml-1" value="Elastic Load Balancing" style="outlineConnect=0;fontColor=#232F3E;gradientColor=none;strokeColor=#ffffff;fillColor=#232F3E;dashed=0;verticalLabelPosition=middle;verticalAlign=bottom;align=center;html=1;whiteSpace=wrap;fontSize=10;fontStyle=1;spacing=3;shape=mxgraph.aws4.productIcon;prIcon=mxgraph.aws4.elastic_load_balancing;" parent="1" vertex="1">
          <mxGeometry x="350" y="490" width="80" height="100" as="geometry" />
        </mxCell>
        <mxCell id="Zm7VVup-Eee8MABnJSml-8" value="Amazon S3" style="outlineConnect=0;fontColor=#232F3E;gradientColor=none;strokeColor=#ffffff;fillColor=#232F3E;dashed=0;verticalLabelPosition=middle;verticalAlign=bottom;align=center;html=1;whiteSpace=wrap;fontSize=10;fontStyle=1;spacing=3;shape=mxgraph.aws4.productIcon;prIcon=mxgraph.aws4.s3;" parent="1" vertex="1">
          <mxGeometry x="720" y="460" width="80" height="100" as="geometry" />
        </mxCell>
        <mxCell id="Zm7VVup-Eee8MABnJSml-12" style="edgeStyle=orthogonalEdgeStyle;rounded=0;orthogonalLoop=1;jettySize=auto;html=1;" parent="1" source="Zm7VVup-Eee8MABnJSml-9" target="Zm7VVup-Eee8MABnJSml-11" edge="1">
          <mxGeometry relative="1" as="geometry" />
        </mxCell>
        <mxCell id="Zm7VVup-Eee8MABnJSml-13" style="edgeStyle=none;rounded=0;orthogonalLoop=1;jettySize=auto;html=1;" parent="1" source="Zm7VVup-Eee8MABnJSml-9" target="Zm7VVup-Eee8MABnJSml-8" edge="1">
          <mxGeometry relative="1" as="geometry" />
        </mxCell>
        <mxCell id="Zm7VVup-Eee8MABnJSml-28" style="edgeStyle=none;rounded=0;orthogonalLoop=1;jettySize=auto;html=1;" parent="1" source="Zm7VVup-Eee8MABnJSml-9" edge="1">
          <mxGeometry relative="1" as="geometry">
            <mxPoint x="1000" y="443.17073170731703" as="targetPoint" />
          </mxGeometry>
        </mxCell>
        <mxCell id="Zm7VVup-Eee8MABnJSml-9" value="Amazon EC2" style="outlineConnect=0;fontColor=#232F3E;gradientColor=none;strokeColor=#ffffff;fillColor=#232F3E;dashed=0;verticalLabelPosition=middle;verticalAlign=bottom;align=center;html=1;whiteSpace=wrap;fontSize=10;fontStyle=1;spacing=3;shape=mxgraph.aws4.productIcon;prIcon=mxgraph.aws4.ec2;" parent="1" vertex="1">
          <mxGeometry x="590" y="330" width="80" height="100" as="geometry" />
        </mxCell>
        <mxCell id="Zm7VVup-Eee8MABnJSml-16" style="edgeStyle=none;rounded=0;orthogonalLoop=1;jettySize=auto;html=1;" parent="1" source="Zm7VVup-Eee8MABnJSml-10" target="Zm7VVup-Eee8MABnJSml-8" edge="1">
          <mxGeometry relative="1" as="geometry" />
        </mxCell>
        <mxCell id="Zm7VVup-Eee8MABnJSml-17" style="edgeStyle=none;rounded=0;orthogonalLoop=1;jettySize=auto;html=1;" parent="1" source="Zm7VVup-Eee8MABnJSml-10" target="Zm7VVup-Eee8MABnJSml-11" edge="1">
          <mxGeometry relative="1" as="geometry" />
        </mxCell>
        <mxCell id="Zm7VVup-Eee8MABnJSml-26" style="edgeStyle=none;rounded=0;orthogonalLoop=1;jettySize=auto;html=1;entryX=-0.012;entryY=0.4;entryDx=0;entryDy=0;entryPerimeter=0;" parent="1" source="Zm7VVup-Eee8MABnJSml-10" edge="1">
          <mxGeometry relative="1" as="geometry">
            <mxPoint x="999.04" y="680" as="targetPoint" />
          </mxGeometry>
        </mxCell>
        <mxCell id="Zm7VVup-Eee8MABnJSml-10" value="Amazon EC2" style="outlineConnect=0;fontColor=#232F3E;gradientColor=none;strokeColor=#ffffff;fillColor=#232F3E;dashed=0;verticalLabelPosition=middle;verticalAlign=bottom;align=center;html=1;whiteSpace=wrap;fontSize=10;fontStyle=1;spacing=3;shape=mxgraph.aws4.productIcon;prIcon=mxgraph.aws4.ec2;" parent="1" vertex="1">
          <mxGeometry x="590" y="660" width="80" height="100" as="geometry" />
        </mxCell>
        <mxCell id="Zm7VVup-Eee8MABnJSml-11" value="Amazon EC2" style="outlineConnect=0;fontColor=#232F3E;gradientColor=none;strokeColor=#ffffff;fillColor=#232F3E;dashed=0;verticalLabelPosition=middle;verticalAlign=bottom;align=center;html=1;whiteSpace=wrap;fontSize=10;fontStyle=1;spacing=3;shape=mxgraph.aws4.productIcon;prIcon=mxgraph.aws4.ec2;" parent="1" vertex="1">
          <mxGeometry x="820" y="460" width="80" height="100" as="geometry" />
        </mxCell>
        <mxCell id="Zm7VVup-Eee8MABnJSml-14" value="Redis server" style="text;html=1;resizable=0;autosize=1;align=center;verticalAlign=middle;points=[];fillColor=none;strokeColor=none;rounded=0;" parent="1" vertex="1">
          <mxGeometry x="820" y="430" width="80" height="20" as="geometry" />
        </mxCell>
        <mxCell id="Zm7VVup-Eee8MABnJSml-18" value="Web server1" style="text;html=1;resizable=0;autosize=1;align=center;verticalAlign=middle;points=[];fillColor=none;strokeColor=none;rounded=0;" parent="1" vertex="1">
          <mxGeometry x="580" y="310" width="80" height="20" as="geometry" />
        </mxCell>
        <mxCell id="Zm7VVup-Eee8MABnJSml-19" value="Web server2" style="text;html=1;resizable=0;autosize=1;align=center;verticalAlign=middle;points=[];fillColor=none;strokeColor=none;rounded=0;" parent="1" vertex="1">
          <mxGeometry x="590" y="640" width="80" height="20" as="geometry" />
        </mxCell>
        <mxCell id="Zm7VVup-Eee8MABnJSml-29" style="edgeStyle=none;rounded=0;orthogonalLoop=1;jettySize=auto;html=1;" parent="1" target="Zm7VVup-Eee8MABnJSml-25" edge="1">
          <mxGeometry relative="1" as="geometry">
            <mxPoint x="1040" y="500" as="sourcePoint" />
          </mxGeometry>
        </mxCell>
        <mxCell id="Zm7VVup-Eee8MABnJSml-22" value="Mysql RDS&amp;nbsp; master" style="text;html=1;resizable=0;autosize=1;align=center;verticalAlign=middle;points=[];fillColor=none;strokeColor=none;rounded=0;" parent="1" vertex="1">
          <mxGeometry x="980" y="380" width="120" height="20" as="geometry" />
        </mxCell>
        <mxCell id="Zm7VVup-Eee8MABnJSml-25" value="Mysql RDS&amp;nbsp; slave" style="text;html=1;resizable=0;autosize=1;align=center;verticalAlign=middle;points=[];fillColor=none;strokeColor=none;rounded=0;" parent="1" vertex="1">
          <mxGeometry x="985" y="620" width="110" height="20" as="geometry" />
        </mxCell>
        <mxCell id="Zm7VVup-Eee8MABnJSml-37" style="edgeStyle=none;rounded=0;orthogonalLoop=1;jettySize=auto;html=1;" parent="1" source="Zm7VVup-Eee8MABnJSml-34" target="Zm7VVup-Eee8MABnJSml-35" edge="1">
          <mxGeometry relative="1" as="geometry" />
        </mxCell>
        <mxCell id="Zm7VVup-Eee8MABnJSml-38" style="edgeStyle=none;rounded=0;orthogonalLoop=1;jettySize=auto;html=1;" parent="1" source="Zm7VVup-Eee8MABnJSml-34" target="Zm7VVup-Eee8MABnJSml-36" edge="1">
          <mxGeometry relative="1" as="geometry" />
        </mxCell>
        <mxCell id="Zm7VVup-Eee8MABnJSml-34" value="Elastic Load Balancing" style="outlineConnect=0;fontColor=#232F3E;gradientColor=none;strokeColor=#ffffff;fillColor=#232F3E;dashed=0;verticalLabelPosition=middle;verticalAlign=bottom;align=center;html=1;whiteSpace=wrap;fontSize=10;fontStyle=1;spacing=3;shape=mxgraph.aws4.productIcon;prIcon=mxgraph.aws4.elastic_load_balancing;" parent="1" vertex="1">
          <mxGeometry x="1170" y="490" width="80" height="100" as="geometry" />
        </mxCell>
        <mxCell id="Zm7VVup-Eee8MABnJSml-35" value="Amazon EC2" style="outlineConnect=0;fontColor=#232F3E;gradientColor=none;strokeColor=#ffffff;fillColor=#232F3E;dashed=0;verticalLabelPosition=middle;verticalAlign=bottom;align=center;html=1;whiteSpace=wrap;fontSize=10;fontStyle=1;spacing=3;shape=mxgraph.aws4.productIcon;prIcon=mxgraph.aws4.ec2;" parent="1" vertex="1">
          <mxGeometry x="1330" y="400" width="80" height="100" as="geometry" />
        </mxCell>
        <mxCell id="Zm7VVup-Eee8MABnJSml-36" value="Amazon EC2" style="outlineConnect=0;fontColor=#232F3E;gradientColor=none;strokeColor=#ffffff;fillColor=#232F3E;dashed=0;verticalLabelPosition=middle;verticalAlign=bottom;align=center;html=1;whiteSpace=wrap;fontSize=10;fontStyle=1;spacing=3;shape=mxgraph.aws4.productIcon;prIcon=mxgraph.aws4.ec2;" parent="1" vertex="1">
          <mxGeometry x="1330" y="610" width="80" height="100" as="geometry" />
        </mxCell>
        <mxCell id="Zm7VVup-Eee8MABnJSml-39" value="Gateway 1" style="text;html=1;resizable=0;autosize=1;align=center;verticalAlign=middle;points=[];fillColor=none;strokeColor=none;rounded=0;" parent="1" vertex="1">
          <mxGeometry x="1335" y="380" width="70" height="20" as="geometry" />
        </mxCell>
        <mxCell id="Zm7VVup-Eee8MABnJSml-42" value="Gateway 2" style="text;html=1;resizable=0;autosize=1;align=center;verticalAlign=middle;points=[];fillColor=none;strokeColor=none;rounded=0;" parent="1" vertex="1">
          <mxGeometry x="1330" y="585" width="70" height="20" as="geometry" />
        </mxCell>
        <mxCell id="Zm7VVup-Eee8MABnJSml-49" style="edgeStyle=none;rounded=0;orthogonalLoop=1;jettySize=auto;html=1;" parent="1" source="Zm7VVup-Eee8MABnJSml-44" edge="1">
          <mxGeometry relative="1" as="geometry">
            <mxPoint x="1600" y="525" as="targetPoint" />
          </mxGeometry>
        </mxCell>
        <mxCell id="Zm7VVup-Eee8MABnJSml-50" value="" style="shape=table;html=1;whiteSpace=wrap;startSize=0;container=1;collapsible=0;childLayout=tableLayout;" parent="1" vertex="1">
          <mxGeometry x="1580" y="710" width="90" height="40" as="geometry" />
        </mxCell>
        <mxCell id="Zm7VVup-Eee8MABnJSml-51" value="" style="shape=partialRectangle;html=1;whiteSpace=wrap;collapsible=0;dropTarget=0;pointerEvents=0;fillColor=none;top=0;left=0;bottom=0;right=0;points=[[0,0.5],[1,0.5]];portConstraint=eastwest;" parent="Zm7VVup-Eee8MABnJSml-50" vertex="1">
          <mxGeometry width="90" height="40" as="geometry" />
        </mxCell>
        <mxCell id="Zm7VVup-Eee8MABnJSml-52" value="内部数据源&lt;br&gt;local data" style="shape=partialRectangle;html=1;whiteSpace=wrap;connectable=0;overflow=hidden;fillColor=none;top=0;left=0;bottom=0;right=0;" parent="Zm7VVup-Eee8MABnJSml-51" vertex="1">
          <mxGeometry width="90" height="40" as="geometry" />
        </mxCell>
        <mxCell id="Zm7VVup-Eee8MABnJSml-53" value="" style="shape=table;html=1;whiteSpace=wrap;startSize=0;container=1;collapsible=0;childLayout=tableLayout;" parent="1" vertex="1">
          <mxGeometry x="1600" y="505" width="90" height="40" as="geometry" />
        </mxCell>
        <mxCell id="Zm7VVup-Eee8MABnJSml-54" value="" style="shape=partialRectangle;html=1;whiteSpace=wrap;collapsible=0;dropTarget=0;pointerEvents=0;fillColor=none;top=0;left=0;bottom=0;right=0;points=[[0,0.5],[1,0.5]];portConstraint=eastwest;" parent="Zm7VVup-Eee8MABnJSml-53" vertex="1">
          <mxGeometry width="90" height="40" as="geometry" />
        </mxCell>
        <mxCell id="Zm7VVup-Eee8MABnJSml-55" value="外部数据源&lt;br&gt;external data" style="shape=partialRectangle;html=1;whiteSpace=wrap;connectable=0;overflow=hidden;fillColor=none;top=0;left=0;bottom=0;right=0;" parent="Zm7VVup-Eee8MABnJSml-54" vertex="1">
          <mxGeometry width="90" height="40" as="geometry" />
        </mxCell>
        <mxCell id="Zm7VVup-Eee8MABnJSml-56" value="" style="shape=table;html=1;whiteSpace=wrap;startSize=0;container=1;collapsible=0;childLayout=tableLayout;" parent="1" vertex="1">
          <mxGeometry x="1590" y="320" width="120" height="40" as="geometry" />
        </mxCell>
        <mxCell id="Zm7VVup-Eee8MABnJSml-57" value="" style="shape=partialRectangle;html=1;whiteSpace=wrap;collapsible=0;dropTarget=0;pointerEvents=0;fillColor=none;top=0;left=0;bottom=0;right=0;points=[[0,0.5],[1,0.5]];portConstraint=eastwest;" parent="Zm7VVup-Eee8MABnJSml-56" vertex="1">
          <mxGeometry width="120" height="40" as="geometry" />
        </mxCell>
        <mxCell id="Zm7VVup-Eee8MABnJSml-58" value="企业用户数据&lt;br&gt;Enterprise user data" style="shape=partialRectangle;html=1;whiteSpace=wrap;connectable=0;overflow=hidden;fillColor=none;top=0;left=0;bottom=0;right=0;" parent="Zm7VVup-Eee8MABnJSml-57" vertex="1">
          <mxGeometry width="120" height="40" as="geometry" />
        </mxCell>
        <mxCell id="Zm7VVup-Eee8MABnJSml-68" value="&lt;div style=&quot;text-align: justify&quot;&gt;&lt;/div&gt;&lt;font&gt;&lt;div style=&quot;text-align: justify&quot;&gt;&lt;font style=&quot;font-size: 18px&quot;&gt;services are running in both zones,and load balancer is performed&lt;/font&gt;&lt;/div&gt;&lt;div style=&quot;text-align: justify&quot;&gt;&lt;span&gt;&lt;font size=&quot;3&quot;&gt;through aws elb. Once business in zone&amp;nbsp; is interrupted,business traffic is switched&amp;nbsp;&lt;/font&gt;&lt;/span&gt;&lt;/div&gt;&lt;div style=&quot;text-align: justify&quot;&gt;&lt;span&gt;&lt;font size=&quot;3&quot;&gt;to another zone through aws elb&amp;nbsp;&lt;/font&gt;&lt;/span&gt;&lt;/div&gt;&lt;br&gt;&lt;/font&gt;" style="text;html=1;resizable=0;autosize=1;align=center;verticalAlign=middle;points=[];fillColor=none;strokeColor=#FF6666;rounded=0;" parent="1" vertex="1">
          <mxGeometry x="560" y="175" width="600" height="70" as="geometry" />
        </mxCell>
        <mxCell id="Zm7VVup-Eee8MABnJSml-72" style="edgeStyle=none;rounded=0;orthogonalLoop=1;jettySize=auto;html=1;exitX=1;exitY=0.5;exitDx=0;exitDy=0;exitPerimeter=0;" parent="1" source="Zm7VVup-Eee8MABnJSml-70" target="Zm7VVup-Eee8MABnJSml-1" edge="1">
          <mxGeometry relative="1" as="geometry" />
        </mxCell>
        <mxCell id="Zm7VVup-Eee8MABnJSml-70" value="" style="outlineConnect=0;dashed=0;verticalLabelPosition=bottom;verticalAlign=top;align=center;html=1;shape=mxgraph.aws3.users;fillColor=#D2D3D3;gradientColor=none;rounded=0;strokeColor=#FF6666;" parent="1" vertex="1">
          <mxGeometry x="220" y="418.5" width="66" height="63" as="geometry" />
        </mxCell>
        <mxCell id="Zm7VVup-Eee8MABnJSml-73" style="edgeStyle=none;rounded=0;orthogonalLoop=1;jettySize=auto;html=1;" parent="1" source="Zm7VVup-Eee8MABnJSml-71" target="Zm7VVup-Eee8MABnJSml-1" edge="1">
          <mxGeometry relative="1" as="geometry" />
        </mxCell>
        <mxCell id="Zm7VVup-Eee8MABnJSml-71" value="" style="pointerEvents=1;shadow=0;dashed=0;html=1;strokeColor=none;labelPosition=center;verticalLabelPosition=bottom;verticalAlign=top;align=center;fillColor=#515151;shape=mxgraph.mscae.system_center.admin_console;rounded=0;" parent="1" vertex="1">
          <mxGeometry x="220" y="657" width="66" height="53" as="geometry" />
        </mxCell>
        <mxCell id="Zm7VVup-Eee8MABnJSml-74" value="Remote managent &amp;amp; Administration" style="text;html=1;resizable=0;autosize=1;align=center;verticalAlign=middle;points=[];fillColor=none;strokeColor=none;rounded=0;" parent="1" vertex="1">
          <mxGeometry x="153" y="710" width="200" height="20" as="geometry" />
        </mxCell>
        <mxCell id="Zm7VVup-Eee8MABnJSml-76" value="Users" style="text;html=1;resizable=0;autosize=1;align=center;verticalAlign=middle;points=[];fillColor=none;strokeColor=none;rounded=0;" parent="1" vertex="1">
          <mxGeometry x="215" y="398.5" width="50" height="20" as="geometry" />
        </mxCell>
        <mxCell id="0zqil9ZWcp2BZfP9a214-1" value="Amazon RDS" style="outlineConnect=0;fontColor=#232F3E;gradientColor=none;strokeColor=#ffffff;fillColor=#232F3E;dashed=0;verticalLabelPosition=middle;verticalAlign=bottom;align=center;html=1;whiteSpace=wrap;fontSize=10;fontStyle=1;spacing=3;shape=mxgraph.aws4.productIcon;prIcon=mxgraph.aws4.rds;" vertex="1" parent="1">
          <mxGeometry x="1000" y="640" width="80" height="100" as="geometry" />
        </mxCell>
        <mxCell id="0zqil9ZWcp2BZfP9a214-3" value="Amazon RDS" style="outlineConnect=0;fontColor=#232F3E;gradientColor=none;strokeColor=#ffffff;fillColor=#232F3E;dashed=0;verticalLabelPosition=middle;verticalAlign=bottom;align=center;html=1;whiteSpace=wrap;fontSize=10;fontStyle=1;spacing=3;shape=mxgraph.aws4.productIcon;prIcon=mxgraph.aws4.rds;" vertex="1" parent="1">
          <mxGeometry x="1000" y="400" width="80" height="100" as="geometry" />
        </mxCell>
        <mxCell id="0zqil9ZWcp2BZfP9a214-5" value="Text" style="text;html=1;strokeColor=none;fillColor=none;align=center;verticalAlign=middle;whiteSpace=wrap;rounded=0;" vertex="1" parent="1">
          <mxGeometry x="760" y="710" width="40" height="20" as="geometry" />
        </mxCell>
        <mxCell id="0zqil9ZWcp2BZfP9a214-12" value="&lt;div style=&quot;text-align: justify&quot;&gt;&lt;/div&gt;&lt;font&gt;&lt;div style=&quot;text-align: justify&quot;&gt;&lt;/div&gt;&lt;span style=&quot;font-family: &amp;#34;helvetica&amp;#34;&quot;&gt;All API requests will use HTTPS&lt;/span&gt;&lt;br&gt;&lt;/font&gt;" style="text;html=1;resizable=0;autosize=1;align=center;verticalAlign=middle;points=[];fillColor=none;strokeColor=#FF6666;rounded=0;" vertex="1" parent="1">
          <mxGeometry x="710" y="260" width="190" height="20" as="geometry" />
        </mxCell>
      </root>
    </mxGraphModel>
  </diagram>
</mxfile>
